<?xml version="1.0" encoding="utf-8"?>
<!-- Generator: Adobe Illustrator 16.0.0, SVG Export Plug-In . SVG Version: 6.00 Build 0)  -->
<!DOCTYPE svg PUBLIC "-//W3C//DTD SVG 1.1//EN" "http://www.w3.org/Graphics/SVG/1.1/DTD/svg11.dtd">
<svg version="1.1" id="Camada_1" xmlns="http://www.w3.org/2000/svg" xmlns:xlink="http://www.w3.org/1999/xlink" x="0px" y="0px"
	 width="26.575px" height="26.704px" viewBox="0 0 26.575 26.704" enable-background="new 0 0 26.575 26.704" xml:space="preserve">
<g>
	<path fill="#FFFFFF" d="M13.288,26.223c-7.098,0-12.873-5.773-12.873-12.872C0.415,6.253,6.19,0.48,13.288,0.48
		c1.677,0,3.308,0.318,4.847,0.945c0.256,0.104,0.379,0.396,0.273,0.651c-0.104,0.257-0.398,0.379-0.65,0.274
		c-1.42-0.578-2.924-0.871-4.47-0.871c-6.547,0-11.873,5.326-11.873,11.872s5.326,11.872,11.873,11.872
		c6.546,0,11.871-5.325,11.871-11.872c0-2.531-0.785-4.946-2.27-6.983c-0.162-0.223-0.113-0.536,0.109-0.699
		c0.223-0.161,0.537-0.114,0.698,0.11c1.611,2.209,2.462,4.827,2.462,7.572C26.159,20.45,20.385,26.223,13.288,26.223z"/>
</g>
<g>
	<path fill="#FFFFFF" d="M16.36,8.03v2.323c0,0-0.855,0.027-1.408,0.027c-0.09,0-0.172-0.001-0.242-0.002c-0.004,0-0.008,0-0.012,0
		c-0.484,0-0.543,0.665-0.543,0.665v1.68l0.053,0.02h2.435l-0.687,1.732h-1.811v6.443h-2.714v-6.459H9.933V12.68h1.56
		c0,0-0.031-1.56,0-2.902c0.031-1.342,1.873-1.747,1.873-1.747L16.36,8.03 M16.36,7.53h-2.994c-0.037,0-0.072,0.004-0.107,0.012
		c-0.092,0.02-2.226,0.509-2.266,2.224c-0.02,0.87-0.014,1.838-0.007,2.413H9.933c-0.276,0-0.5,0.224-0.5,0.5v1.778
		c0,0.275,0.224,0.5,0.5,0.5h0.998v5.959c0,0.275,0.224,0.5,0.5,0.5h2.714c0.275,0,0.5-0.225,0.5-0.5v-5.942h1.311
		c0.205,0,0.39-0.125,0.465-0.315l0.687-1.732c0.062-0.154,0.043-0.328-0.051-0.465c-0.095-0.137-0.248-0.219-0.414-0.219h-1.986
		v-1.199c0.007-0.036,0.048-0.151,0.076-0.18c0.039,0.017,0.125,0.018,0.222,0.018c0.559,0,1.424-0.027,1.424-0.027
		c0.27-0.009,0.483-0.23,0.483-0.5V8.03C16.86,7.753,16.637,7.53,16.36,7.53L16.36,7.53z"/>
</g>
</svg>
