<?xml version="1.0" encoding="utf-8"?>
<!-- Generator: Adobe Illustrator 16.0.0, SVG Export Plug-In . SVG Version: 6.00 Build 0)  -->
<!DOCTYPE svg PUBLIC "-//W3C//DTD SVG 1.1//EN" "http://www.w3.org/Graphics/SVG/1.1/DTD/svg11.dtd">
<svg version="1.1" id="Camada_1" xmlns="http://www.w3.org/2000/svg" xmlns:xlink="http://www.w3.org/1999/xlink" x="0px" y="0px"
	 width="433px" height="240px" viewBox="-9.5 54.5 433 240" enable-background="new -9.5 54.5 433 240" xml:space="preserve">
<rect id="XMLID_1_" x="-9.5" y="54.5" fill="#E6213F" width="433" height="240"/>
<g id="XMLID_2_">
	<path id="XMLID_3_" fill="#FFFFFF" d="M37.032,134.186h14.697v66.134H37.032V134.186z"/>
	<path id="XMLID_5_" fill="#FFFFFF" d="M89.428,147.284c-1.278,1.278-2.236,2.556-2.236,4.473s0.958,3.514,2.556,4.473
		c1.598,1.278,5.751,2.556,12.141,4.153c6.39,1.598,11.182,3.834,14.696,7.029c3.515,3.195,5.112,7.668,5.112,13.418
		c0,5.751-2.236,10.863-6.709,14.377c-4.473,3.834-10.224,5.431-17.572,5.431c-10.543,0-19.809-3.833-28.115-11.501l8.946-10.862
		c7.029,6.39,13.738,9.265,19.808,9.265c2.556,0,4.792-0.639,6.39-1.598c1.598-1.278,2.237-2.875,2.237-4.792
		c0-1.917-0.958-3.515-2.556-4.792c-1.597-1.278-4.792-2.236-9.584-3.515c-7.668-1.917-13.418-4.153-16.933-7.029
		c-3.514-2.875-5.431-7.667-5.431-13.738c0-6.39,2.236-11.182,6.709-14.377c4.473-3.514,10.224-5.112,16.933-5.112
		c4.473,0,8.946,0.639,13.099,2.236c4.153,1.598,8.307,3.515,11.501,6.39l-7.348,10.863c-5.751-4.473-11.501-6.39-17.892-6.39
		C92.623,145.687,90.706,146.326,89.428,147.284z"/>
	<path id="XMLID_7_" fill="#FFFFFF" d="M186.233,200.319l-6.07-14.377h-27.796l-6.07,14.377h-15.655l28.435-66.134h14.377
		l28.435,66.134H186.233z M166.425,153.994l-8.307,19.169h16.613L166.425,153.994z"/>
	<path id="XMLID_10_" fill="#FFFFFF" d="M215.626,134.186h14.696v66.134h-14.696V134.186z"/>
	<path id="XMLID_12_" fill="#FFFFFF" d="M299.332,200.319l-6.07-14.377h-27.476l-6.39,14.377h-15.655l28.435-66.134h14.377
		l28.435,66.134H299.332z M279.523,153.994l-8.307,19.169h16.613L279.523,153.994z"/>
	<path id="XMLID_15_" fill="#FFFFFF" d="M343.741,147.284c-1.278,1.278-2.236,2.556-2.236,4.473s0.958,3.514,2.556,4.473
		c1.598,1.278,5.751,2.556,12.141,4.153c6.39,1.598,11.183,3.834,14.696,7.029c3.515,3.195,5.112,7.668,5.112,13.418
		c0,5.751-2.236,10.863-6.709,14.377c-4.474,3.834-10.224,5.431-17.572,5.431c-10.543,0-19.809-3.833-28.115-11.501l8.946-10.862
		c7.028,6.39,13.737,9.265,19.808,9.265c2.557,0,4.793-0.639,6.39-1.598c1.598-1.278,2.237-2.875,2.237-4.792
		c0-1.917-0.959-3.515-2.557-4.792s-4.792-2.236-9.584-3.515c-7.668-1.917-13.419-4.153-16.934-7.029
		c-3.514-2.875-5.431-7.667-5.431-13.738c0-6.39,2.236-11.182,6.709-14.377c4.473-3.514,10.224-5.112,16.933-5.112
		c4.473,0,8.946,0.639,13.1,2.236c4.153,1.598,8.307,3.515,11.501,6.39l-7.348,10.863c-5.751-4.473-11.502-6.39-17.892-6.39
		C346.937,145.687,345.02,146.326,343.741,147.284z"/>
</g>
<path fill="#FFFFFF" d="M37.99,225.879v11.182h18.211v6.391H37.99v16.932h-7.029v-40.895h27.476v6.391H37.99z"/>
<path fill="#FFFFFF" d="M99.332,232.907c0,6.71-2.875,11.183-8.945,12.78l10.862,15.016h-8.945l-9.904-13.738h-9.265v13.738h-7.029
	v-41.215h15.335c6.39,0,10.863,0.959,13.418,3.195C98.054,224.92,99.332,228.115,99.332,232.907z M90.067,238.658
	c1.278-1.277,2.237-3.195,2.237-5.751s-0.639-4.473-2.237-5.431c-1.597-0.959-4.153-1.598-7.667-1.598h-8.946v14.696h8.626
	C86.233,240.575,88.789,239.936,90.067,238.658z"/>
<path fill="#FFFFFF" d="M115.307,251.438l-4.153,9.266h-7.348l18.211-41.215h7.348l18.211,41.215h-7.348l-4.153-9.266H115.307z
	 M133.198,245.048l-7.349-16.933l-7.348,16.933H133.198z"/>
<path fill="#FFFFFF" d="M183.997,219.488h7.028v41.215h-7.667l-23.323-30.032v30.032h-7.029v-41.215h7.029l23.962,30.672V219.488z"
	/>
<path fill="#FFFFFF" d="M221.377,254.313c2.557,0,4.473-0.318,6.07-1.277s3.515-2.236,5.432-3.834l4.473,4.473
	c-4.473,4.793-9.585,7.349-15.975,7.349c-6.07,0-11.502-1.917-15.654-6.07c-4.154-4.153-6.071-8.946-6.071-15.335
	c0-6.07,2.237-11.183,6.389-15.336c4.154-4.153,9.585-6.07,15.975-6.07c6.391,0,11.821,2.236,15.975,7.029l-4.473,4.791
	c-1.917-1.916-3.834-3.194-5.432-3.833c-1.598-0.64-3.834-1.278-6.07-1.278c-4.152,0-7.668,1.278-10.543,4.153
	c-2.875,2.556-4.153,6.07-4.153,10.224c0,4.154,1.278,7.668,4.153,10.543C214.029,253.035,217.543,254.313,221.377,254.313z"/>
<path fill="#FFFFFF" d="M245.978,219.488h7.028v41.215h-7.028V219.488z"/>
<path fill="#FFFFFF" d="M276.648,224.92c-1.917,0-3.834,0.32-5.111,1.278c-1.278,0.958-1.918,1.917-1.918,3.834
	c0,1.597,0.64,2.875,1.918,3.833c1.277,0.959,4.152,1.918,8.307,2.876c4.153,0.958,7.348,2.556,9.584,4.153
	c2.236,1.917,3.195,4.473,3.195,8.307c0,3.515-1.277,6.39-4.153,8.627c-2.556,2.236-6.39,3.514-10.543,3.514
	c-6.39,0-12.141-2.236-17.253-6.709l4.473-5.111c4.154,3.514,8.627,5.431,13.1,5.431c2.236,0,4.153-0.64,5.432-1.598
	c1.277-0.958,1.916-2.236,1.916-3.833c0-1.598-0.639-2.876-1.916-3.834c-1.278-0.959-3.515-1.598-6.391-2.557
	c-2.875-0.639-5.431-1.277-7.028-1.917c-1.598-0.639-2.876-1.278-4.153-2.236c-2.236-1.917-3.515-4.792-3.515-8.626
	s1.278-6.709,4.153-8.945c2.875-1.918,6.07-3.195,10.225-3.195c2.555,0,5.111,0.319,7.986,1.277
	c2.557,0.959,4.793,2.236,6.709,3.516l-3.834,5.111c-1.277-0.959-2.875-1.917-4.791-2.557
	C280.802,225.24,278.885,224.92,276.648,224.92z"/>
<path fill="#FFFFFF" d="M320.099,254.313c2.557,0,4.474-0.318,6.07-1.277c1.598-0.959,3.515-2.236,5.432-3.834l4.473,4.473
	c-4.473,4.793-9.584,7.349-15.975,7.349c-6.07,0-11.501-1.917-15.654-6.07s-6.07-8.946-6.07-15.335c0-6.07,2.236-11.183,6.39-15.336
	s9.585-6.07,15.975-6.07s11.821,2.236,15.975,7.029l-4.474,4.791c-1.917-1.916-3.833-3.194-5.431-3.833
	c-1.598-0.64-3.834-1.278-6.07-1.278c-4.153,0-7.668,1.278-10.543,4.153c-2.876,2.556-4.153,6.07-4.153,10.224
	c0,4.154,1.277,7.668,4.153,10.543C313.07,253.035,316.266,254.313,320.099,254.313z"/>
<path fill="#FFFFFF" d="M378.246,254.952c-4.153,4.153-9.266,6.07-15.336,6.07s-11.182-1.917-15.335-6.07s-6.39-9.265-6.39-15.335
	s2.236-11.183,6.39-15.336s9.265-6.07,15.335-6.07s11.183,1.917,15.336,6.07s6.39,9.266,6.39,15.336
	C384.636,246.006,382.719,250.799,378.246,254.952z M373.454,229.073c-2.876-2.875-6.391-4.473-10.224-4.473
	c-4.153,0-7.668,1.598-10.224,4.473c-2.876,2.876-4.153,6.39-4.153,10.544c0,4.152,1.277,7.667,4.153,10.543
	c2.875,2.875,6.39,4.473,10.224,4.473c4.153,0,7.667-1.598,10.224-4.473c2.875-2.876,4.153-6.391,4.153-10.543
	C377.607,235.783,376.01,232.269,373.454,229.073z"/>
<g id="XMLID_198_">
</g>
<g id="XMLID_199_">
</g>
<g id="XMLID_200_">
</g>
<g id="XMLID_201_">
</g>
<g id="XMLID_202_">
</g>
<g id="XMLID_203_">
</g>
</svg>
