<?xml version="1.0" encoding="utf-8"?>
<!-- Generator: Adobe Illustrator 16.0.0, SVG Export Plug-In . SVG Version: 6.00 Build 0)  -->
<!DOCTYPE svg PUBLIC "-//W3C//DTD SVG 1.1//EN" "http://www.w3.org/Graphics/SVG/1.1/DTD/svg11.dtd">
<svg version="1.1" id="Camada_1" xmlns="http://www.w3.org/2000/svg" xmlns:xlink="http://www.w3.org/1999/xlink" x="0px" y="0px"
	 width="26.575px" height="26.704px" viewBox="0 0 26.575 26.704" enable-background="new 0 0 26.575 26.704" xml:space="preserve">
<g>
	<path fill="#FFFFFF" d="M13.287,26.224c-7.098,0-12.872-5.774-12.872-12.872c0-7.097,5.774-12.872,12.872-12.872
		c1.678,0,3.309,0.318,4.848,0.945c0.256,0.104,0.379,0.396,0.273,0.651c-0.104,0.256-0.398,0.378-0.65,0.274
		c-1.42-0.578-2.924-0.871-4.471-0.871c-6.546,0-11.872,5.326-11.872,11.872s5.326,11.872,11.872,11.872
		c6.545,0,11.872-5.326,11.872-11.872c0-2.53-0.785-4.944-2.27-6.983C22.727,6.146,22.776,5.833,23,5.67
		c0.223-0.162,0.535-0.114,0.696,0.11c1.611,2.21,2.462,4.829,2.462,7.572C26.159,20.45,20.385,26.224,13.287,26.224z"/>
</g>
<g>
	<path fill="#FFFFFF" d="M7.532,20.347c-0.069,0-0.137-0.028-0.186-0.083c-0.079-0.088-0.086-0.219-0.017-0.314
		c0.86-1.183,1.775-2.638,1.799-2.988c-0.818-1.063-1.251-2.336-1.251-3.683c0-3.331,2.71-6.041,6.042-6.041
		c3.332,0,6.043,2.71,6.043,6.041c0,3.332-2.711,6.042-6.043,6.042c-1.003,0-1.997-0.25-2.872-0.725
		c-0.354,0.059-1.977,0.904-3.391,1.718C7.618,20.336,7.575,20.347,7.532,20.347z M13.918,7.738c-3.056,0-5.542,2.485-5.542,5.541
		c0,1.249,0.405,2.429,1.172,3.408c0.097,0.125,0.338,0.435-1.174,2.649c1.001-0.551,2.332-1.244,2.699-1.244
		c0.042,0,0.131,0.021,0.168,0.041c0.813,0.449,1.738,0.688,2.674,0.688c3.058,0,5.543-2.486,5.543-5.542S16.975,7.738,13.918,7.738
		z"/>
</g>
<g>
	<path fill="#FFFFFF" d="M15.905,16.874c-0.102,0-0.207-0.008-0.316-0.025c-1.594-0.258-4.334-2.696-4.854-4.033
		c-0.26-0.67-0.144-1.441,0.319-2.119c0.27-0.394,0.7-0.79,1.056-0.79c0.085,0,0.163,0.043,0.209,0.113l1.07,1.642
		c0.064,0.099,0.052,0.229-0.032,0.313c-0.287,0.288-0.54,0.678-0.511,0.788c0.014,0.021,0.787,1.395,2.019,1.939l1.102-0.734
		c0.08-0.055,0.185-0.057,0.269-0.008l1.593,0.951c0.102,0.062,0.147,0.186,0.108,0.297C17.911,15.276,17.338,16.874,15.905,16.874z
		 M12,10.446c-0.132,0.074-0.348,0.25-0.552,0.557c-0.167,0.252-0.526,0.915-0.248,1.63c0.461,1.188,3.076,3.497,4.468,3.721
		c0.983,0.166,1.521-0.727,1.713-1.125l-1.271-0.758l-1.082,0.721c-0.065,0.044-0.151,0.055-0.229,0.025
		c-1.471-0.573-2.35-2.139-2.387-2.205c-0.24-0.376,0.179-0.941,0.448-1.243L12,10.446z"/>
</g>
</svg>
